<?xml version="1.0" encoding="UTF-8"?>
<svg width="570px" height="607px" viewBox="0 0 570 607" version="1.1" xmlns="http://www.w3.org/2000/svg" xmlns:xlink="http://www.w3.org/1999/xlink">
    <!-- Generator: Sketch 52.5 (67469) - http://www.bohemiancoding.com/sketch -->
    <title>Hero</title>
    <desc>Created with Sketch.</desc>
    <g id="Page-1" stroke="none" stroke-width="1" fill="none" fill-rule="evenodd">
        <g id="Zariance-Web" transform="translate(-665.000000, 0.000000)">
            <g id="Hero" transform="translate(628.000000, -41.000000)">
                <g id="browser" transform="translate(75.000000, 271.000000)">
                    <rect id="Rectangle" fill-opacity="0.2" fill="#1A73E8" x="0" y="0" width="500" height="338" rx="12"></rect>
                    <g id="Group" opacity="0.910807292" transform="translate(35.000000, 48.000000)" fill="#FFFFFF">
                        <rect id="Rectangle" x="0" y="0" width="150" height="270" rx="3"></rect>
                        <rect id="Rectangle-Copy-3" x="160" y="0" width="270" height="270" rx="2"></rect>
                    </g>
                    <g id="Group-2" transform="translate(45.000000, 192.000000)" fill="#F2F3F5">
                        <rect id="Rectangle" x="0" y="0" width="120" height="20" rx="10"></rect>
                        <rect id="Rectangle-Copy-4" x="0" y="30" width="80" height="10" rx="5"></rect>
                        <rect id="Rectangle-Copy-5" x="0" y="48" width="90" height="10" rx="5"></rect>
                        <rect id="Rectangle-Copy-7" x="0" y="65" width="100" height="10" rx="5"></rect>
                        <rect id="Rectangle-Copy-6" x="0" y="83" width="80" height="10" rx="5"></rect>
                    </g>
                    <circle id="Oval" fill="#F2F3F5" cx="109.5" cy="115.5" r="36.5"></circle>
                    <path d="M12,0 L488,0 C494.627417,-1.21743675e-15 500,5.372583 500,12 L500,30 L0,30 L0,12 C-8.11624501e-16,5.372583 5.372583,1.21743675e-15 12,0 Z" id="Rectangle-Copy-2" fill="#FFFFFF" opacity="0.301757812"></path>
                    <circle id="Oval" fill="#FFFFFF" cx="15" cy="15" r="5"></circle>
                    <circle id="Oval-Copy" fill="#FFFFFF" cx="33" cy="15" r="5"></circle>
                    <circle id="Oval-Copy-2" fill="#FFFFFF" cx="51" cy="15" r="5"></circle>
                    <g id="Group-4" transform="translate(210.000000, 153.500000)" fill="#F2F3F5">
                        <rect id="Rectangle" x="0" y="0" width="59" height="59" rx="8"></rect>
                        <rect id="Rectangle-Copy-4" x="75" y="7" width="124" height="10" rx="5"></rect>
                        <rect id="Rectangle-Copy-5" x="75" y="25" width="108" height="10" rx="5"></rect>
                        <rect id="Rectangle-Copy-7" x="75" y="42" width="155" height="10" rx="5"></rect>
                    </g>
                    <g id="Group-3" transform="translate(210.000000, 66.000000)" fill="#F2F3F5">
                        <rect id="Rectangle-Copy-15" x="0" y="0" width="59" height="59" rx="8"></rect>
                        <rect id="Rectangle-Copy-14" x="75" y="7" width="129" height="10" rx="5"></rect>
                        <rect id="Rectangle-Copy-13" x="75" y="25" width="144" height="10" rx="5"></rect>
                        <rect id="Rectangle-Copy-12" x="75" y="42" width="110" height="10" rx="5"></rect>
                    </g>
                    <g id="Group-5" transform="translate(210.000000, 241.000000)" fill="#F2F3F5">
                        <rect id="Rectangle-Copy-11" x="0" y="0" width="59" height="59" rx="8"></rect>
                        <rect id="Rectangle-Copy-10" x="75" y="7" width="86" height="10" rx="5"></rect>
                        <rect id="Rectangle-Copy-9" x="75" y="25" width="130" height="10" rx="5"></rect>
                        <rect id="Rectangle-Copy-8" x="75" y="42" width="155" height="10" rx="5"></rect>
                    </g>
                </g>
                <g id="Maceta" transform="translate(532.000000, 533.000000)" fill="#F2F2F2">
                    <path d="M15.4177215,48.4556962 C15.4177215,69.7431274 17.0976047,87 39.6455696,87 C62.1935345,87 63.8734177,69.7431274 63.8734177,48.4556962" id="Base"></path>
                    <path d="M46.353417,35.1741665 C45.5269187,36.603205 44.7899627,38.0608242 44.1390143,39.5403256 C44.1160396,36.4933476 44.2845204,33.4240409 44.7446025,30.3127562 C45.5310424,24.9833358 46.7322042,19.6816031 47.8609075,14.3883552 C48.6720893,10.5844334 48.6208382,3.75184321 51.6994412,0.720495335 C52.5436123,0.0653705071 52.7468496,1.35061199 52.7468496,1.90838357 C52.7574533,2.02627925 52.7444932,-0.368253357 51.9250641,0.0488472497 C47.0544384,2.56440155 45.4762567,10.4741295 43.916926,14.4343524 C41.6418466,20.2148131 39.7060851,26.1238872 38.9090415,32.1379063 C38.7075715,33.6571528 38.5980001,35.1759528 38.5726691,36.6920733 C38.4071338,36.2865836 38.2516131,35.877968 38.0795978,35.473818 C35.2684432,28.8805917 31.4746806,22.4472391 26.743081,16.51405 C25.578443,15.0541979 10.9341658,0.649489986 9.78778975,2.85422841 C9.90089571,3.17442235 10.1377113,3.44013419 10.4988257,3.65136394 C10.5200331,3.67547897 10.5206222,3.66208173 10.5082512,3.62635577 C11.3683278,5.01564911 13.8136552,7.16143971 14.5753532,8.37880186 C16.4922637,11.4423031 17.9820814,14.6933656 19.4960519,17.8823543 C22.69483,24.6216105 25.6620943,31.428746 28.5386382,38.2501718 C29.2084376,39.839084 29.9065135,41.4190647 30.6187276,42.994133 C23.2768544,32.4045113 13.4825846,22.7906549 -1.42108547e-14,17.2870705 C4.60494447,19.6298004 7.62404905,24.037491 10.733874,27.4122547 C14.4846328,31.4827815 18.4350943,35.4438975 22.1929222,39.5099586 C26.6252623,44.3066155 31.8405077,49.35782 36.1037779,54.6658048 C40.2333239,63.3356026 44.2462293,72.0147785 46.7233678,81.1284714 C45.7083596,77.9796744 46.6438402,73.6282523 46.4700576,70.3236008 C46.3322097,67.6932768 46.0247028,65.0843884 45.6035009,62.4804124 C46.1242596,63.6549034 46.5731489,64.8302875 46.7763862,65.923502 C46.5908217,64.089867 46.3769808,62.2678429 46.1472343,60.4551969 C46.7369169,58.7582137 47.3159959,57.1746605 47.7071541,55.8702163 C49.7118395,49.1787436 52.0988467,42.6024871 55.349465,36.192803 C58.3573768,30.263633 61.8076979,24.4099342 65.5672931,18.7348651 C67.3210246,16.088911 69.0989091,13.4527816 70.8656007,10.8121864 C72.0219914,9.08349646 73.1230073,6.31562756 74.733,4.65928264 C64.3260729,14.1739995 52.9559778,23.7574888 46.353417,35.1741665" id="Fill-27"></path>
                </g>
                <g id="Hero-Image" transform="translate(389.000000, 303.000000)">
                    <g id="Head/Front/Short-Beard" transform="translate(129.423151, 48.590387) scale(-1, 1) rotate(-6.000000) translate(-129.423151, -48.590387) translate(73.909556, 5.873903)">
                        <g id="Head" stroke-width="1" transform="translate(44.073529, 25.336538)" fill="#B28B67">
                            <path d="M6.74347353,28.1890459 C2.9826062,23.7684322 0.437172516,18.3509092 0.862515978,12.280419 C2.08804893,-5.21035335 26.4021096,-1.36260628 31.1316977,7.46523364 C35.8612859,16.2930736 35.2992879,38.6856216 29.1867166,40.2634028 C26.7490316,40.8926198 21.5560377,39.3512902 16.2707815,36.1612116 L19.5882353,59.6634615 L0,59.6634615 L6.74347353,28.1890459 Z"></path>
                        </g>
                        <path d="M61.3236684,39.5486439 C62.0734766,50.0078747 64.0569176,55.23749 67.2739915,55.23749 C72.099885,55.23749 76.1943128,52.1696035 78.3117989,52.1696035 C79.8553745,52.1696035 79.5107414,54.1039225 78.4875789,55.5380826 C77.6434368,56.7213109 73.5325355,57.8618014 73.5325355,59.6962025 C73.5325355,61.5306035 76.7804885,60.1114285 76.7804885,61.1993759 C76.7804885,62.9989737 77.3513114,66.3825394 74.2322491,66.3825394 C71.0756541,66.3825394 62.025137,65.2306213 60.4741235,60.539184 C59.4731448,57.5114675 58.8259401,51.2374726 58.5325095,41.7171994 C58.3410203,41.6944135 58.1461418,41.6826923 57.9485294,41.6826923 C55.2439585,41.6826923 53.0514706,43.878219 53.0514706,46.5865385 C53.0514706,47.9614284 53.6165029,49.204165 54.5267218,50.0945979 C53.3936088,51.6961959 52.1237142,53.3692795 50.6685506,55.0956843 C45.2018161,51.8113202 41.1451883,42.1967554 46.4898085,32.9606121 C47.9670784,28.4359691 51.3114106,26.0191872 55.2611474,24.8969978 C58.4606378,23.5567859 61.7820117,23.4056758 64.5857241,24.2091208 C70.0817771,24.6811915 74.9894887,26.3594098 76.3803737,27.3560624 C76.3803737,32.5665822 75.3721587,34.1125282 66.7606281,33.9762588 C64.6446354,35.0953036 63.017967,37.0222973 61.3236684,39.5486439 Z" id="Hair" fill="#191847"></path>
                    </g>
                    <g id="Bottom/Standing/Skinny-Jeans" transform="translate(127.500000, 246.000000) scale(-1, 1) translate(-127.500000, -246.000000) translate(5.000000, 148.000000)">
                        <polygon id="Leg" fill="#191847" points="104.533333 9.9475983e-14 134.141553 104.336712 155.744015 181.238494 171.5 181.238494 148.544295 9.9475983e-14"></polygon>
                        <path d="M96.6152127,0 C95.9303775,53.7763514 93.5951021,83.1074347 92.8760531,87.99325 C92.1570041,92.8790654 81.284607,123.960813 60.2588617,181.238494 L76.5809949,181.238494 C103.348377,126.290346 118.290615,95.2085983 121.407708,87.99325 C124.524801,80.7779018 134.144454,51.4468185 148.633333,0 L96.6152127,0 Z" id="Leg" fill="#2F3676"></path>
                        <g id="Accessories/Shoe/Flat-Pointy" transform="translate(58.800000, 163.196653)" fill="#191847">
                            <path d="M0,33 L0.819672131,15.675 L18.0327869,15.675 C26.1947568,21.45 36.8504945,26.125 50,29.7 L50,33 L18.852459,33 L8.19672131,31.35 L8.19672131,33 L0,33 Z" id="Shoe"></path>
                        </g>
                        <g id="Accessories/Shoe/Flat-Pointy" transform="translate(153.533333, 163.196653)" fill="#191847">
                            <path d="M0,33 L0.819672131,15.675 L18.0327869,15.675 C26.1947568,21.45 36.8504945,26.125 50,29.7 L50,33 L18.852459,33 L8.19672131,31.35 L8.19672131,33 L0,33 Z" id="Shoe"></path>
                        </g>
                    </g>
                    <g id="Body/Jacket" transform="translate(116.691843, 150.452747) scale(-1, 1) rotate(-10.000000) translate(-116.691843, -150.452747) translate(12.084592, 74.092308)">
                        <path d="M158.419069,72.9184185 L181.546147,95.5288919 C188.275274,98.4054644 193.788835,101.581781 198.086831,105.057843 C199.053385,106.226265 200.105638,108.465023 195.558045,107.463211 C191.010453,106.461399 186.182111,105.61261 185.3274,107.094737 C184.472688,108.576863 186.991166,110.848008 185.411553,112.787731 C184.358477,114.080879 180.816902,109.967627 174.786827,100.447975 L150.737724,86.2383819 L158.419069,72.9184185 Z M55.7670194,76.1071839 L72.8277807,76.1744218 C62.2935478,110.254696 56.6066274,128.337475 55.7670194,130.422761 C53.8779014,135.114654 57.875529,142.260326 59.5850733,146.100357 C54.0171447,148.597257 54.6104134,139.350215 47.5866213,142.625039 C41.1756296,145.614147 36.2988041,151.030211 28.8918295,146.44994 C27.9811855,145.886823 26.9832681,143.766584 29.3943628,142.10973 C35.4012791,137.981902 44.0576095,130.757459 45.227216,128.379478 C46.8221835,125.136676 50.3354513,107.712578 55.7670194,76.1071839 Z" id="Skin" fill="#B28B67"></path>
                        <path d="M99.6068263,7.54675757 L106.533764,5.72259244 C121.293804,34.9758585 144.842842,60.6692339 177.180879,82.8027185 L156.810937,112.555593 C123.55775,79.9213391 101.778715,45.1555755 99.6068263,7.54675757 Z" id="Coat-Back" fill="#191847" transform="translate(138.393852, 59.139093) rotate(5.000000) translate(-138.393852, -59.139093) "></path>
                        <path d="M73.4765625,93.2727273 L136.339844,93.2727273 C121.775866,57.784211 114.493877,27.6371375 114.493877,2.83150661 L95.5311308,0 C80.6281938,24.0205147 76.4195652,53.5946318 73.4765625,93.2727273 Z" id="Shirt" fill="#DDE3E9"></path>
                        <path d="M95.129644,0.0134344365 C95.1321337,0.00895551244 95.1346232,0.00447736686 95.1371124,-2.19366023e-14 L96.3749226,-4.26340567e-14 C97.8560697,0.0511143837 100.112047,0.143207095 103.142854,0.276278134 L107.724934,13.3992655 C108.209616,29.3992551 111.040088,61.6435513 116.21635,110.132154 L75.0082073,110.132154 C75.1162341,113.481062 75.294353,116.861253 75.542564,120.272727 L44.9023438,120.272727 C49.4855802,68.4523336 66.2229867,28.3614245 95.1145633,1.42108547e-14 L95.129644,0.0134344314 Z" id="Coat-Front" fill="#2F3676"></path>
                        <path d="M77.7302269,67.2816283 C78.9030053,88.1573663 81.8392838,102.548339 86.5390625,110.454545 L75.01882,110.454545 C74.5144679,95.4350628 75.4182704,81.0441072 77.730226,67.281634 Z" id="Shade" fill-opacity="0.1" fill="#000000"></path>
                        <polygon id="Light" fill-opacity="0.2" fill="#FFFFFF" points="84.1803823 85.0909091 104.5 75.6239496 104.5 85.0909091"></polygon>
                    </g>
                </g>
                <g id="Group" transform="translate(0.000000, 404.000000)">
                    <g id="Head/Front/Chongo" transform="translate(50.000000, 0.000000)">
                        <g id="Head" stroke-width="1" transform="translate(36.926471, 21.163462)" fill="#B28B67">
                            <path d="M5.64993729,23.5461442 C2.49894033,19.8536316 0.366279675,15.3284065 0.722648523,10.2577618 C1.7494464,-4.35217751 22.1206864,-1.13817701 26.0833143,6.23566574 C30.0459423,13.6095085 29.575079,32.3138722 24.4537355,33.6317835 C22.4113508,34.1573648 18.060464,32.8699012 13.6322764,30.2052474 L16.4117647,49.8365385 L0,49.8365385 L5.64993729,23.5461442 Z"></path>
                        </g>
                        <path d="M56.5272429,19.3679646 C54.2846836,18.6852723 51.0292754,18.4537495 49.6598219,18.6103727 C50.4388295,16.7470185 50.7479511,14.6710176 50.4959424,12.6496643 C50.2510007,10.6855451 49.3719017,9.01315455 48.5588672,7.26069132 C48.1840997,6.45292046 47.7593912,5.64955222 47.126176,5.03169941 C46.4811299,4.4022347 45.664588,3.98673736 44.8083655,3.78850935 C43.9321456,3.58560356 43.015931,3.60249862 42.1383501,3.78663824 C41.7501289,3.86808672 41.4017977,4.04529221 41.0210624,4.14380085 C40.631166,4.24473094 40.4420286,4.00110091 40.1590291,3.75626015 C39.4770246,3.16630896 38.4772084,2.87507559 37.6143899,2.77084354 C36.6463496,2.65395396 35.6418743,2.79973574 34.7186449,3.11743987 C33.8200196,3.42672398 32.95673,3.92895296 32.3070248,4.66061351 C32.0177435,4.98629739 31.7551602,5.35699806 31.584502,5.7662767 C31.5145112,5.93423669 31.5029421,6.03373592 31.3350584,6.09526255 C31.1797908,6.15222145 30.9981917,6.15387244 30.8379509,6.2080797 C29.2885211,6.73199159 27.9637739,7.92719308 27.2424551,9.46178161 C26.8216203,10.3570546 26.6222748,11.9333138 26.676875,13.7000414 C26.7314751,15.4667691 28.3293802,20.0766656 29.8238958,21.7581365 C31.1579089,23.25899 33.1187506,24.2494146 35.0111196,24.6829627 C33.7550543,26.1162909 32.9189339,27.9073871 32.3006382,29.7289715 C31.6290511,31.7076744 31.213399,33.7636433 31.0599113,35.8584654 C30.9141189,37.8487802 30.9006129,39.9535631 31.367986,41.9013927 C31.805206,43.722922 32.7402139,45.2172266 34.3011082,46.1652209 C35.0160927,46.5994844 35.7853633,46.9257186 36.5590836,47.2238861 C37.3216011,47.517706 38.0864221,47.8033811 38.8851652,47.9682592 C40.3968513,48.2801849 42.1386642,48.2266381 43.3031184,47.025383 C43.7228014,46.5923302 44.1843638,46.0481662 44.4905539,45.5191363 C44.6006441,45.328888 44.6670228,45.204459 44.5332708,45.0185033 C44.3730301,44.7957857 44.1138495,44.6251291 43.9080127,44.4508954 C42.734188,43.457499 42.0075819,42.1313196 41.8244123,40.5552914 C41.6385728,38.9562044 42.0688304,36.8922007 43.6261126,36.1943303 C45.5484253,35.3328475 47.6654245,36.3216761 49.3739956,37.2434198 C50.1001305,34.6848367 51.5910863,32.3811103 53.9286324,31.2074817 C56.5147322,29.9090937 59.4822478,29.7571483 62.1398565,28.6431201 C62.8323833,28.3528223 63.5377356,28.0232861 64.0476162,27.431794 C64.2606772,27.1845869 64.5106443,26.863911 64.5957117,26.5369613 C64.7074771,26.1074857 64.4300266,25.7474063 64.2157093,25.412587 C63.0793142,23.6372852 58.7698023,20.0506569 56.5272429,19.3679646 Z" id="hair" fill="#191847"></path>
                    </g>
                    <g id="Bottom/Sitting/Skinny-Jeans-1" transform="translate(0.000000, 130.000000)">
                        <g id="Objects/Seat/Cube" transform="translate(6.866667, 28.820084)" stroke-width="1">
                            <g id="Seat" transform="translate(37.693966, 0.000000)">
                                <polygon id="Seat-Stuff" fill="#C5CFD6" points="18.9310345 0 71.8770417 0 78.8146552 85 0 85"></polygon>
                                <polygon id="Seat-Stuff" fill-opacity="0.1" fill="#000000" points="18.9310345 0 35.214937 0 44.9612069 85 0 85"></polygon>
                            </g>
                        </g>
                        <path d="M177.127929,14.2426975 C182.783864,10.8488037 192.273182,15.2092605 192.266667,20.0631804 C192.247173,34.5860976 178.984255,103.032554 178.29178,107.359416 C177.599306,111.686279 170.181167,112.829166 169.749184,107.373596 C169.061827,98.6928635 167.784803,68.6419745 169.062518,54.7325312 C169.589931,48.9910052 170.157928,43.5229676 170.717109,38.6447092 C163.757573,51.2040959 152.994297,69.1860402 138.427281,92.5905422 L130.519247,88.9800697 C136.72918,68.5342267 141.821233,54.1000056 145.795404,45.6774064 C152.600149,31.2558717 158.98071,18.9057498 161.666083,14.5555196 C165.890175,7.7126046 173.242884,10.1001991 177.127929,14.2426975 Z" id="Skin" fill="#B28B67"></path>
                        <path d="M143.381423,84.640865 L146.910661,14.9789354 C149.44586,2.93298203 170.879445,8.51849285 170.869196,14.9736174 C170.84593,29.6287484 162.02674,80.2561658 162.019808,84.6224189 L143.381423,84.640865 Z" id="LegLower" fill="#1F28CF" transform="translate(157.125311, 46.263993) rotate(20.000000) translate(-157.125311, -46.263993) "></path>
                        <g id="Accessories/Shoe/Flat-Sneaker" transform="translate(147.976667, 91.263598) rotate(30.000000) translate(-147.976667, -91.263598) translate(127.033333, 77.539749)" fill="#E4E4E4">
                            <path d="M1.60145456,17.7994784 C0.99283458,19.4911078 0.68852459,20.7817243 0.68852459,21.6713278 C0.68852459,22.888546 0.895367157,24.6647701 1.30905229,27 C2.74940343,27 15.6940816,27 40.1430869,27 C41.1522458,23.7292924 40.5697008,21.9635426 38.3954518,21.7027506 C36.2212028,21.4419587 34.4150173,21.2064844 32.9768951,20.9963278 L15.209468,13.2311075 C14.7034043,13.0099333 14.1138616,13.2408819 13.8926874,13.7469456 C13.8908218,13.7512142 13.8889861,13.7554958 13.8871803,13.7597901 L12.8500811,16.2261192 C10.8372953,17.1467902 9.20169777,17.6071257 7.94328865,17.6071257 C7.02785355,17.6071257 5.80012907,17.2826022 4.26011522,16.6335552 L4.26011998,16.6335439 C3.24225007,16.2045572 2.06934105,16.6819414 1.64035436,17.6998113 C1.62650131,17.7326808 1.61353008,17.7659151 1.60145456,17.7994784 Z" id="shoe"></path>
                        </g>
                        <g id="Accessories/Shoe/Flat-Sneaker" transform="translate(166.173333, 86.460251)" fill="#E4E4E4">
                            <path d="M1.60145456,17.7994784 C0.99283458,19.4911078 0.68852459,20.7817243 0.68852459,21.6713278 C0.68852459,22.888546 0.895367157,24.6647701 1.30905229,27 C2.74940343,27 15.6940816,27 40.1430869,27 C41.1522458,23.7292924 40.5697008,21.9635426 38.3954518,21.7027506 C36.2212028,21.4419587 34.4150173,21.2064844 32.9768951,20.9963278 L15.209468,13.2311075 C14.7034043,13.0099333 14.1138616,13.2408819 13.8926874,13.7469456 C13.8908218,13.7512142 13.8889861,13.7554958 13.8871803,13.7597901 L12.8500811,16.2261192 C10.8372953,17.1467902 9.20169777,17.6071257 7.94328865,17.6071257 C7.02785355,17.6071257 5.80012907,17.2826022 4.26011522,16.6335552 L4.26011998,16.6335439 C3.24225007,16.2045572 2.06934105,16.6819414 1.64035436,17.6998113 C1.62650131,17.7326808 1.61353008,17.7659151 1.60145456,17.7994784 Z" id="shoe"></path>
                        </g>
                        <path d="M194.16899,25.0000693 C194.16899,43.2301255 185.505472,85.7536741 185.49999,89.7677753 L166.86,89.7820831 C169.588317,51.8387401 170.555758,32.662688 169.762322,32.2539266 C168.572169,31.6407846 120.974075,37.0029498 106.698632,37.0029498 C86.1133733,37.0029498 77.5976638,24.0307328 76.9066667,-4.40536496e-13 L117.685299,-4.40536496e-13 C125.988195,0.887841746 169.29686,9.61716363 185.38084,12.6179904 C192.266667,13.9026957 194.16899,19.9781581 194.16899,25.0000693 Z" id="Leg-and-Butt" fill="#2B44FF"></path>
                    </g>
                    <g id="Body/Hoodie" transform="translate(14.000000, 57.000000)">
                        <path d="M130.416839,63.1180221 L152.222298,79.1512875 C158.136387,80.7492191 163.077418,82.7373159 167.045389,85.1155779 C167.982693,85.9707856 169.115513,87.7027233 165.228287,87.4034011 C161.341062,87.104079 157.23884,86.9642896 156.702478,88.2919043 C156.166117,89.619519 158.518455,91.2072006 157.434235,92.9985004 C156.711421,94.1927003 153.296559,91.1982884 147.189649,84.0152645 L125.596525,75.0493756 L130.416839,63.1180221 Z M46.6948727,63.6713695 L60.9801991,63.7276209 C52.1596692,92.2392224 47.3978937,107.3673 46.6948727,109.111852 C45.1130754,113.037096 48.4603712,119.015175 49.8918078,122.227749 C45.2296666,124.31666 45.7264227,116.580572 39.8452571,119.320294 C34.4772018,121.820986 30.3937355,126.352072 24.1917233,122.520211 C23.4292223,122.049107 22.5936455,120.275313 24.6125047,118.889186 C29.6422194,115.43584 36.8903429,109.391861 37.8696785,107.402439 C39.2051776,104.689506 42.146909,90.1124832 46.6948727,63.6713695 Z" id="Skin" fill="#B28B67"></path>
                        <path d="M83.8940315,6.55399653 L89.6941752,5.02745504 C113.196121,22.0147427 125.346526,57.5364619 153.8101,74.4266553 L148.06412,82.9910853 C101.100232,81.2958033 85.7102381,38.0176526 83.8940315,6.55399653 Z" id="Coat-Back" fill="#DB2721" transform="translate(118.852066, 44.009270) rotate(5.000000) translate(-118.852066, -44.009270) "></path>
                        <path d="M61.5234375,78.0320856 C85.2248331,78.0320856 102.659083,78.0320856 113.826187,78.0320856 C116.216156,78.0320856 115.765812,74.5765217 115.420327,72.8328252 C111.433019,52.7084603 95.8680791,31.0153689 95.8680791,2.36884213 L80.781504,0 C68.3029682,20.095594 63.9876742,44.837339 61.5234375,78.0320856 Z" id="Shirt" fill="#DDE3E9"></path>
                        <path d="M61.9437392,19.7530411 C59.7526035,19.1223706 58.0174508,17.6514502 56.7382812,15.3402799 C51.2241112,5.37742086 53.2155361,-0.107870997 59.1084351,-1.91091741 C65.001334,-3.71396381 70.2565659,-1.46549439e-14 79.6455292,-4.88498131e-15 C80.1562106,-4.4408921e-15 80.6239373,0.032056494 81.0487092,0.0961694821 L85.7715928,0.366025202 C99.3220607,46.3505074 103.059199,77.030638 96.9830074,92.4064171 L55.8166698,92.4064171 C53.377608,98.1013021 51.0436318,102.892746 48.814741,106.780749 L37.5976562,106.780749 C36.541971,72.6020729 44.6573319,43.592837 61.9437392,19.7530411 Z" id="Coat-Front" fill="#FF4133"></path>
                        <path d="M64.7809179,68.7898235 C66.0755912,79.6365505 68.1798686,87.5087484 71.09375,92.4064171 L55.8166698,92.4064171 C58.6617672,85.7634928 61.6498499,77.891295 64.7809179,68.7898235 Z" id="Shade" fill-opacity="0.1" fill="#000000"></path>
                    </g>
                </g>
                <g id="Hanging-Lamp" transform="translate(358.000000, 0.000000)">
                    <g id="Light" transform="translate(0.000000, 152.673469)">
                        <ellipse id="Hanging-Lamp-Light" fill="#F2F2F2" cx="49.5" cy="34.5" rx="42.5" ry="22.5"></ellipse>
                        <path d="M99,50 C99,22.3857625 76.8380951,0 49.5,0 C22.1619049,0 -7.10542736e-15,22.3857625 -7.10542736e-15,50" id="Hanging-Lamp" fill="#DDE3E9"></path>
                    </g>
                    <rect id="Wire" fill="#DDE3E9" x="47" y="0" width="5" height="160"></rect>
                </g>
                <g id="Hanging-Lamp" opacity="0.7" transform="translate(448.000000, 0.000000)">
                    <g id="Light" transform="translate(0.000000, 113.000000)">
                        <ellipse id="Hanging-Lamp-Light" fill="#F2F2F2" cx="37" cy="27.8421053" rx="31.7676768" ry="18.1578947"></ellipse>
                        <path d="M74,40.3508772 C74,18.0657031 57.4345357,0 37,0 C16.5654643,0 -7.10542736e-15,18.0657031 -7.10542736e-15,40.3508772" id="Hanging-Lamp" fill="#DDE3E9"></path>
                    </g>
                    <rect id="Wire" fill="#DDE3E9" x="35" y="0" width="5" height="136"></rect>
                </g>
            </g>
        </g>
    </g>
</svg>